:SAMPLES-PER-SECOND 30
:FULLY-SPECIFIED
:DEGREES
436
root  -33.8384 34.8549 3.26387 -158.818 88.3719 -165.696
RightUpLeg  -8.84058 -4.74854 -1.58448
RightLeg  8.74791 12.273 1.083
RightFoot  4.28561 -0.019481 0.990386
RightToes  -35.1602 -0.182777 -0.286183
Spine  -0.784705 0.54266 0.425673
Spine1  -1.57642 1.2544 1.31656
HEad  -63.9231 -2.73468 7.4907
LeftShoulder1  -1.94126e-019 -3.10601e-018 -2.51263e-017
LeftArm  -9.33481 23.741 -73.8015
LeftForeArm  37.2049 -70.6856 -29.5546
LeftHand  -0.107139 3.45375 5.5617
RightShoulder  -4.96962e-017 0 -2.36833e-017
RightArm  -29.7065 -20.2992 73.0614
RightForeArm  51.9726 16.0324 1.14542
RightHand  -0.328811 -0.0286126 -7.15736
LeftUpLeg  -9.42229 6.12166 -1.29842
LeftLeg  11.7567 17.6069 2.45571
LeftFoot  2.30394 -0.0141952 0.868589
LeftToes  -15.4237 1.89912e-006 4.45198e-008
437
root  -33.7829 34.8641 3.26701 -159.61 88.2485 -166.214
RightUpLeg  -8.34397 -5.03707 -1.59754
RightLeg  8.50921 12.4696 1.0482
RightFoot  4.37087 -0.0207432 1.02766
RightToes  -35.6098 -0.18488 -0.2868
Spine  -0.927013 0.603953 0.504791
Spine1  -1.799 1.45812 1.41755
HEad  -64.1003 -3.19973 7.95808
LeftShoulder1  -1.94126e-019 -3.10601e-018 -2.51263e-017
LeftArm  -6.56113 19.0543 -72.0981
LeftForeArm  58.2953 -77.661 -53.146
LeftHand  -0.142237 2.23314 4.90061
RightShoulder  -4.96962e-017 0 -2.36833e-017
RightArm  -29.9622 -19.8905 73.0281
RightForeArm  52.8603 15.4439 1.15166
RightHand  -0.334507 -0.0233845 -7.27456
LeftUpLeg  -8.98318 6.17128 -1.22959
LeftLeg  11.5756 17.4223 2.37563
LeftFoot  2.37132 -0.0153824 0.887127
LeftToes  -15.4196 1.89912e-006 4.45198e-008
438
root  -33.7433 34.8689 3.2641 -162.012 87.8942 -168.421
RightUpLeg  -7.94222 -5.51263 -1.60873
RightLeg  8.32687 12.5792 1.01732
RightFoot  4.38542 -0.0206563 1.04516
RightToes  -35.8791 -0.186429 -0.287238
Spine  -1.14584 0.635168 0.596843
Spine1  -2.15454 1.62702 1.53588
HEad  -64.1615 -3.66102 8.14313
LeftShoulder1  -1.94126e-019 -3.10601e-018 -2.51263e-017
LeftArm  -3.90356 12.5364 -70.6097
LeftForeArm  86.1027 -79.9441 -81.044
LeftHand  -0.206997 0.632193 5.02467
RightShoulder  -4.96962e-017 0 -2.36833e-017
RightArm  -30.2757 -19.6227 72.8558
RightForeArm  54.0603 14.6647 1.20388
RightHand  -0.334225 -0.145343 -7.42536
LeftUpLeg  -8.66664 6.11025 -1.18464
LeftLeg  11.3568 17.1968 2.28008
LeftFoot  2.42912 -0.0164055 0.902444
LeftToes  -15.6621 1.89912e-006 4.45198e-008
439
root  -33.7108 34.8715 3.26592 -165.036 87.5256 -171.227
RightUpLeg  -7.59271 -5.75518 -1.66271
RightLeg  8.2945 12.4448 0.999582
RightFoot  4.295 -0.017837 1.02292
RightToes  -35.6965 -0.187456 -0.287537
Spine  -1.34144 0.612407 0.661538
Spine1  -2.46292 1.6943 1.60636
HEad  -64.2726 -3.86352 8.30106
LeftShoulder1  -1.94126e-019 -3.10601e-018 -2.51263e-017
LeftArm  -1.9896 4.9561 -69.1281
LeftForeArm  103.642 -79.9981 -97.917
LeftHand  -0.25147 -0.386895 5.13381
RightShoulder  -4.96962e-017 0 -2.36833e-017
RightArm  -30.6732 -19.25 72.6718
RightForeArm  55.2453 13.7793 1.29754
RightHand  -0.338558 -0.213153 -7.6134
LeftUpLeg  -8.30459 5.87878 -1.17929
LeftLeg  11.0868 17.0656 2.18273
LeftFoot  2.53659 -0.0187871 0.938413
LeftToes  -15.6492 1.89912e-006 4.45198e-008
440
root  -33.6907 34.8732 3.27039 -168.006 87.17 -174.028
RightUpLeg  -7.3487 -5.62413 -1.74
RightLeg  8.33787 11.9609 0.970264
RightFoot  4.17704 -0.0130318 0.971396
RightToes  -35.3387 -0.188019 -0.287741
Spine  -1.53956 0.514206 0.694626
Spine1  -2.78178 1.61087 1.62637
HEad  -64.4683 -3.90957 8.32794
LeftShoulder1  -1.94126e-019 -3.10601e-018 -2.51263e-017
LeftArm  -1.4345 -3.08419 -67.7331
LeftForeArm  104.927 -80.0173 -98.4133
LeftHand  -0.242283 -1.46915 4.25579
RightShoulder  -4.96962e-017 0 -2.36833e-017
RightArm  -31.0644 -18.8406 72.5281
RightForeArm  56.5162 12.964 1.38697
RightHand  -0.340069 -0.235025 -7.67766
LeftUpLeg  -8.00994 5.76052 -1.21512
LeftLeg  10.808 16.8303 2.07164
LeftFoot  2.68716 -0.0217266 0.982807
LeftToes  -15.72 1.89912e-006 4.45198e-008
441
root  -33.6827 34.8789 3.2786 -170.12 86.8988 -176.009
RightUpLeg  -7.17888 -5.71236 -1.81083
RightLeg  8.38067 11.7801 0.964576
RightFoot  4.11137 -0.0106915 0.953943
RightToes  -35.1946 -0.188218 -0.287891
Spine  -1.73647 0.41001 0.742503
Spine1  -3.10133 1.50493 1.69527
HEad  -64.9277 -3.93468 8.53578
LeftShoulder1  -1.94126e-019 -3.10601e-018 -2.51263e-017
LeftArm  -1.97885 -11.4883 -66.8488
LeftForeArm  86.5138 -79.9709 -79.5642
LeftHand  -0.168175 -2.39103 2.71145
RightShoulder  -4.96962e-017 0 -2.36833e-017
RightArm  -31.0715 -18.6687 72.2843
RightForeArm  57.2675 12.5853 1.42448
RightHand  -0.343962 -0.175673 -7.5625
LeftUpLeg  -7.69305 5.68173 -1.25101
LeftLeg  10.3834 16.6539 1.92727
LeftFoot  2.94235 -0.0268309 1.06081
LeftToes  -15.8852 1.89912e-006 4.45198e-008
442
root  -33.6908 34.8857 3.28914 -171.239 86.6899 -177.055
RightUpLeg  -7.11601 -6.12396 -1.8568
RightLeg  8.4319 11.9955 0.992706
RightFoot  4.1376 -0.0116421 0.982145
RightToes  -35.5072 -0.188154 -0.288028
Spine  -1.88983 0.329091 0.786611
Spine1  -3.35289 1.41566 1.77586
HEad  -65.6847 -4.14596 8.83048
LeftShoulder1  -1.94126e-019 -3.10601e-018 -2.51263e-017
LeftArm  -3.13007 -19.9484 -66.4918
LeftForeArm  56.3515 -77.3577 -51.7189
LeftHand  -0.0516141 -2.58902 0.958308
RightShoulder  -4.96962e-017 0 -2.36833e-017
RightArm  -30.8228 -18.7244 72.0713
RightForeArm  57.1202 12.5886 1.42507
RightHand  -0.341866 -0.270435 -7.65527
LeftUpLeg  -7.44524 5.49825 -1.26595
LeftLeg  9.95661 16.5893 1.79676
LeftFoot  3.20284 -0.0322109 1.14328
LeftToes  -15.82 1.89912e-006 4.45198e-008
443
root  -33.7075 34.8942 3.30058 -171.725 86.6206 -177.547
RightUpLeg  -7.0963 -6.33875 -1.86991
RightLeg  8.34158 12.1572 0.98677
RightFoot  4.20984 -0.0129789 1.01431
RightToes  -35.5904 -0.187928 -0.288194
Spine  -2.04606 0.220357 0.811588
Spine1  -3.63398 1.24089 1.83854
HEad  -66.396 -4.02218 8.76336
LeftShoulder1  -1.94126e-019 -3.10601e-018 -2.51263e-017
LeftArm  -4.3808 -27.5765 -66.5004
LeftForeArm  33.4109 -71.4774 -32.387
LeftHand  -0.0110122 -1.95287 0.34315
RightShoulder  -4.96962e-017 0 -2.36833e-017
RightArm  -30.406 -18.7517 71.9001
RightForeArm  56.6981 12.5746 1.42919
RightHand  -0.337105 -0.341788 -7.84473
LeftUpLeg  -7.24584 5.56881 -1.272
LeftLeg  9.43133 16.5078 1.63747
LeftFoot  3.45465 -0.0371132 1.2187
LeftToes  -15.9104 1.89912e-006 4.45198e-008
444
root  -33.7241 34.9074 3.3189 -172.197 86.7566 -178.097
RightUpLeg  -7.07477 -6.2173 -1.86158
RightLeg  8.02395 12.1451 0.91858
RightFoot  4.42835 -0.0157114 1.06464
RightToes  -35.8131 -0.187642 -0.28843
Spine  -2.21427 0.0348092 0.858469
Spine1  -3.94308 0.906368 1.95328
HEad  -66.9567 -3.41661 8.39035
LeftShoulder1  -1.94126e-019 -3.10601e-018 -2.51263e-017
LeftArm  -5.74165 -33.7457 -66.7835
LeftForeArm  22.4013 -63.9123 -21.5968
LeftHand  -0.0795747 -1.49834 1.48556
RightShoulder  -4.96962e-017 0 -2.36833e-017
RightArm  -30.0632 -18.5577 71.7519
RightForeArm  56.7866 12.4784 1.43863
RightHand  -0.340412 -0.2858 -7.69401
LeftUpLeg  -6.98534 5.72631 -1.29546
LeftLeg  8.69563 16.4563 1.4225
LeftFoot  3.82233 -0.0442097 1.32884
LeftToes  -15.8063 1.89912e-006 4.45198e-008
445
root  -33.7376 34.9225 3.33766 -172.596 87.0741 -178.614
RightUpLeg  -7.06292 -5.71798 -1.85109
RightLeg  7.62162 11.9262 0.818682
RightFoot  4.61418 -0.0168839 1.09071
RightToes  -35.5054 -0.187397 -0.288779
Spine  -2.37027 -0.229435 0.950499
Spine1  -4.22475 0.416753 2.15873
HEad  -67.2296 -2.31269 7.74369
LeftShoulder1  -1.94126e-019 -3.10601e-018 -2.51263e-017
LeftArm  -7.48018 -37.8565 -67.2632
LeftForeArm  22.0444 -57.0647 -15.7306
LeftHand  -0.215184 -0.914184 4.07885
RightShoulder  -4.96962e-017 0 -2.36833e-017
RightArm  -29.962 -18.0306 71.6654
RightForeArm  57.0362 12.1882 1.46501
RightHand  -0.337087 -0.380364 -7.81628
LeftUpLeg  -6.66864 5.82967 -1.32941
LeftLeg  7.80733 16.6822 1.1851
LeftFoot  4.25762 -0.0538845 1.47986
LeftToes  -16.0471 1.89912e-006 4.45198e-008
446
root  -33.7401 34.9381 3.3573 -172.258 87.5628 -178.387
RightUpLeg  -7.02258 -5.18528 -1.82108
RightLeg  7.1491 11.8778 0.717738
RightFoot  4.8701 -0.02004 1.14293
RightToes  -35.5239 -0.187295 -0.289281
Spine  -2.50888 -0.501984 1.08679
Spine1  -4.47061 -0.0961748 2.45466
HEad  -67.2491 -0.979752 6.83806
LeftShoulder1  -1.94126e-019 -3.10601e-018 -2.51263e-017
LeftArm  -9.51645 -39.5924 -67.7803
LeftForeArm  25.5684 -52.4053 -12.7013
LeftHand  -0.305114 0.449631 7.18466
RightShoulder  -4.96962e-017 0 -2.36833e-017
RightArm  -30.283 -17.4777 71.6445
RightForeArm  57.5898 11.9738 1.48077
RightHand  -0.335956 -0.421083 -7.84965
LeftUpLeg  -6.25284 6.03845 -1.33199
LeftLeg  6.79775 16.9575 0.9087
LeftFoot  4.72639 -0.0645939 1.648
LeftToes  -16.415 1.89912e-006 4.45198e-008
447
root  -33.7309 34.9469 3.37456 -171.007 88.2811 -177.218
RightUpLeg  -7.05033 -4.72605 -1.7901
RightLeg  6.83707 12.1138 0.666125
RightFoot  5.05396 -0.0238884 1.20263
RightToes  -35.655 -0.187435 -0.289979
Spine  -2.65298 -0.737202 1.22078
Spine1  -4.73694 -0.543201 2.74423
HEad  -66.8804 0.360833 5.8498
LeftShoulder1  -1.94126e-019 -3.10601e-018 -2.51263e-017
LeftArm  -10.6338 -38.9612 -67.9701
LeftForeArm  28.1123 -49.9448 -11.3306
LeftHand  -0.315458 2.06463 10.8361
RightShoulder  -4.96962e-017 0 -2.36833e-017
RightArm  -29.4609 -17.3313 71.6929
RightForeArm  56.7689 12.2278 1.463
RightHand  -0.328996 -0.452538 -7.73211
LeftUpLeg  -5.85099 6.77446 -1.31763
LeftLeg  5.95269 16.9228 0.660523
LeftFoot  5.00184 -0.0696635 1.7297
LeftToes  -16.4383 1.89912e-006 4.45198e-008
448
root  -33.717 34.954 3.39668 -166.378 89.1785 -172.627
RightUpLeg  -7.10013 -4.14027 -1.76155
RightLeg  6.62634 12.3945 0.636003
RightFoot  5.20364 -0.0276413 1.25836
RightToes  -35.8529 -0.187919 -0.290914
Spine  -2.76674 -0.882086 1.36373
Spine1  -4.95668 -0.83615 3.05491
HEad  -66.2101 1.47676 5.02452
LeftShoulder1  -1.94126e-019 -3.10601e-018 -2.51263e-017
LeftArm  -10.9315 -36.141 -68.1838
LeftForeArm  29.083 -49.3737 -11.0053
LeftHand  -0.269406 2.98922 12.6547
RightShoulder  -4.96962e-017 0 -2.36833e-017
RightArm  -28.9418 -17.5809 71.864
RightForeArm  55.813 12.7849 1.41328
RightHand  -0.322241 -0.470222 -7.59795
LeftUpLeg  -5.41318 7.49935 -1.28731
LeftLeg  5.1893 17.0786 0.442116
LeftFoot  5.23103 -0.0747704 1.81342
LeftToes  -16.5412 1.89912e-006 4.45198e-008
